<?xml version="1.0" encoding="UTF-8"?>
<svg version="1.1" xmlns="http://www.w3.org/2000/svg" width="1024" height="1024">
<path d="M0 0 C0.97010533 -0.01180534 1.94021066 -0.02361068 2.93971312 -0.03577375 C3.99776321 -0.02325591 5.05581331 -0.01073806 6.14592552 0.00215912 C7.276103 -0.0042297 8.40628049 -0.01061852 9.57070577 -0.01720095 C13.36683782 -0.03248962 17.16193268 -0.01196148 20.95802879 0.0083847 C23.67668756 0.00764847 26.39531208 -0.0005766 29.11395836 -0.00843048 C35.74055643 -0.02296616 42.36684831 -0.01070971 48.9934174 0.01068276 C56.72362064 0.03471775 64.45375404 0.03297639 72.18398635 0.03037685 C85.99463548 0.02668465 99.8051409 0.04751923 113.61574364 0.08162689 C126.98394474 0.11462934 140.35199478 0.12890055 153.72023582 0.12264252 C168.29220247 0.11585448 182.8641058 0.11841372 197.43606317 0.13800192 C198.20941918 0.1390414 198.98277518 0.14008089 199.77956622 0.14115188 C201.33244116 0.14324267 202.88531606 0.14535364 204.43819094 0.14748505 C209.81042607 0.15434283 215.18264156 0.15505612 220.55488014 0.1536026 C227.12430727 0.15215173 233.69361217 0.16205199 240.26299895 0.18554896 C243.60716742 0.19728765 246.95102719 0.20298272 250.29523468 0.1987114 C285.23285385 0.16262873 315.52143809 6.56006046 344.08058739 27.62361908 C345.00742332 28.3068222 345.93425926 28.99002533 346.88918114 29.69393158 C360.65922449 40.45625373 372.29615093 53.19572126 382.08058739 67.62361908 C377.55302381 60.18143645 372.70050833 53.27878862 367.08058739 46.62361908 C366.08285301 45.40545502 366.08285301 45.40545502 365.06496239 44.16268158 C356.27693547 33.84488701 345.4963318 26.11674833 333.82277489 19.37752533 C329.67859444 16.72690279 327.41564998 14.96386944 326.20558739 10.12361908 C326.0318069 5.25776542 326.0318069 5.25776542 328.08058739 2.62361908 C331.53308457 0.38506904 334.46861184 0.36796874 338.52625084 0.35619354 C339.49388755 0.34939687 339.49388755 0.34939687 340.48107249 0.3424629 C342.64053784 0.3298125 344.79975121 0.33143963 346.9592495 0.33309174 C348.50836066 0.32710694 350.05746885 0.3203015 351.6065731 0.31273651 C355.81316532 0.2950659 360.01967617 0.29038073 364.22630191 0.28910494 C367.73780889 0.28720568 371.24929692 0.27984798 374.76079661 0.27276075 C383.04473078 0.25647572 391.32862147 0.25159196 399.61256981 0.25301361 C408.15934736 0.2542156 416.70587261 0.23310268 425.25258631 0.20152628 C432.59027608 0.17538228 439.92788334 0.1646455 447.26561934 0.16592443 C451.64825056 0.16643455 456.0306575 0.16072372 460.41324234 0.13956833 C464.53456756 0.12021701 468.65545381 0.12003991 472.77679443 0.13460159 C474.28889544 0.13669457 475.80102371 0.13195969 477.31307793 0.11988068 C479.37854896 0.10444991 481.44250211 0.11371922 483.50794029 0.12914276 C484.66328238 0.12805323 485.81862448 0.12696369 487.00897694 0.12584114 C490.70306575 0.72449645 492.39031636 2.08801903 495.08058739 4.62361908 C495.70807884 3.97462143 496.3355703 3.32562378 496.98207664 2.65695953 C501.2640301 -0.15299334 504.63992032 0.05379045 509.65675926 0.09017181 C510.61506142 0.08155624 511.57336357 0.07294067 512.56070518 0.06406403 C515.72385844 0.04138773 518.88612702 0.04814577 522.04933739 0.05721283 C524.24982021 0.05197826 526.45030079 0.04570239 528.65077782 0.03842926 C533.26078926 0.02802215 537.87049208 0.03259158 542.48048973 0.04720306 C548.3890199 0.06439706 554.2965782 0.04088888 560.20499992 0.00571346 C564.74835724 -0.01624238 569.29148133 -0.01482349 573.83487511 -0.00652122 C576.01338327 -0.00570083 578.19190841 -0.01258097 580.37036705 -0.02729225 C583.41565861 -0.04470546 586.45919472 -0.03022202 589.50441551 -0.00748444 C590.85425278 -0.02502274 590.85425278 -0.02502274 592.23135948 -0.04291534 C593.48033264 -0.0239344 593.48033264 -0.0239344 594.75453758 -0.00457001 C595.47349457 -0.0039837 596.19245155 -0.00339739 596.93319511 -0.00279331 C600.30775125 0.9815931 601.85099676 2.96695187 604.08058739 5.62361908 C605.47168636 8.48060989 605.47168636 8.48060989 606.59317589 11.75295258 C606.91876191 12.68486097 606.91876191 12.68486097 607.25092542 13.6355958 C607.99422056 15.777512 608.71516792 17.92629557 609.43630028 20.07576752 C609.98926943 21.68894874 610.54321034 23.3017971 611.09799099 24.91435623 C613.11729536 30.80903714 615.09847636 36.71635042 617.08058739 42.62361908 C617.88983902 45.02908007 618.69921495 47.43449925 619.50869942 49.8398819 C625.68362921 68.19937109 631.80407269 86.57693995 637.91688418 104.95718606 C640.70890766 113.35188328 643.50480426 121.74528914 646.30091418 130.13862595 C651.30239081 145.15224463 656.30141497 160.16667858 661.29860497 175.18172455 C661.59561442 176.07414623 661.89262388 176.96656791 662.19863362 177.88603267 C662.64463978 179.22614445 662.64463978 179.22614445 663.09965616 180.59332919 C663.70112791 182.40056556 664.30260043 184.20780168 664.90407372 186.01503754 C665.20209996 186.91051161 665.50012621 187.80598568 665.80718356 188.72859533 C669.11496201 198.66725971 672.42346839 208.60568172 675.73219872 218.54402924 C676.02852821 219.43410857 676.3248577 220.3241879 676.63016688 221.24123934 C681.61293601 236.20771753 686.5969863 251.1737689 691.58166844 266.13961005 C694.36309622 274.49071508 697.14375928 282.84207336 699.92253494 291.19406128 C710.50472603 323.00007356 721.08700739 354.80376113 731.9873926 386.50255847 C734.64926632 394.25747945 737.24175417 402.03547573 739.83058739 409.81502533 C740.1267347 410.70451842 740.42288202 411.59401152 740.7280035 412.51045895 C741.41034798 414.56232979 742.09141784 416.61461805 742.77199364 418.66707611 C746.3736371 429.51613546 749.99568638 440.35837247 753.61629295 451.20111465 C755.92791399 458.12486892 758.23775854 465.04921602 760.54781151 471.97349358 C762.52589588 477.90245728 764.5045556 483.83122783 766.48439598 489.75960541 C768.43824825 495.61025826 770.39061237 501.46140582 772.34197044 507.31289101 C773.07497484 509.510075 773.80850179 511.70708475 774.542593 513.90390587 C786.68122311 550.23284557 786.68122311 550.23284557 785.08058739 556.62361908 C783.66174889 558.72284698 783.66174889 558.72284698 781.08058739 560.62361908 C777.81050727 561.23725913 774.56991722 561.1800876 771.2507534 561.15706635 C770.25358299 561.16568192 769.25641258 561.17429749 768.22902489 561.18317413 C764.93058425 561.20588912 761.63298944 561.19908459 758.33449364 561.19002533 C756.04290069 561.19525864 753.7513099 561.20153403 751.45972252 561.2088089 C746.65542533 561.21922351 741.85142413 561.21463648 737.04714012 561.2000351 C730.88861186 561.18285068 724.73101683 561.2063337 718.57259274 561.2415247 C713.83965426 561.26347972 709.10693969 561.26206164 704.37396622 561.25375938 C702.10335263 561.25293874 699.83272278 561.2598236 697.56215668 561.27453041 C694.38745884 561.29193944 691.21444577 561.27746253 688.0398159 561.2547226 C687.10095039 561.26641479 686.16208488 561.27810699 685.19476891 561.2901535 C680.78042035 561.22578132 678.71549487 561.09570404 675.08774376 558.39829254 C673.18152154 555.76314948 672.01854824 553.67049757 671.00685692 550.59774017 C670.67467155 549.61407471 670.34248619 548.63040924 670.0002346 547.61693573 C669.65807915 546.55437561 669.31592369 545.49181549 668.96339989 544.39705658 C668.58958183 543.27818054 668.21576378 542.1593045 667.8306179 541.00652313 C666.60894358 537.34150017 665.4075832 533.67013755 664.20558739 529.99861908 C663.35859694 527.44305471 662.50661189 524.88916988 661.65382957 522.33553314 C661.22387009 521.0474565 660.79393848 519.75937055 660.36403465 518.47127533 C660.151007 517.8330484 659.93797935 517.19482147 659.71849632 516.53725433 C659.07132685 514.59583768 658.42613806 512.65377325 657.78151512 510.7115097 C654.36392216 500.4203011 650.83293677 490.1721781 647.23436546 479.94301605 C645.73378851 475.67694899 644.24093641 471.40818428 642.74855614 467.13924408 C642.45475563 466.29890625 642.16095512 465.45856842 641.85825157 464.59276581 C638.42918573 454.77405227 635.03601966 444.94305764 631.66518211 435.1042099 C630.98883945 433.13188711 630.31088509 431.1601162 629.63124657 429.1889267 C628.69450465 426.47075543 627.76367942 423.75063104 626.83449364 421.02986908 C626.41385391 419.81445435 626.41385391 419.81445435 625.98471642 418.57448578 C624.93324414 415.47783294 624.08058739 412.9178861 624.08058739 409.62361908 C575.57058739 409.95361908 527.06058739 410.28361908 477.08058739 410.62361908 C466.91667862 440.51746839 456.77747698 470.41005899 446.82521629 500.37361908 C444.29707182 507.98397767 441.75965127 515.59124317 439.22258568 523.19863129 C438.26015563 526.08465774 437.29786074 528.97072877 436.33667564 531.8571701 C435.89567849 533.17896666 435.45314361 534.50025133 435.00894737 535.82097626 C433.89408845 539.14200798 432.8118806 542.46914613 431.77687645 545.81600189 C431.56149223 546.49824829 431.34610802 547.18049469 431.12419701 547.88341522 C430.53315537 549.75922533 429.95415199 551.63881649 429.37599754 553.51863861 C427.97678733 556.87241838 426.90128788 558.36842112 424.08058739 560.62361908 C421.2960701 561.12139702 421.2960701 561.12139702 418.02611351 561.1180954 C416.78450462 561.12648438 415.54289574 561.13487335 414.26366234 561.14351654 C412.88997147 561.13254916 411.51628373 561.12118318 410.14259911 561.10945892 C408.69339722 561.11160542 407.24419701 561.11548406 405.79500389 561.12096405 C401.85597209 561.13066587 397.91739306 561.11533433 393.97841597 561.09505796 C389.84150893 561.07745636 385.7046153 561.08101296 381.56767845 561.08177948 C374.60527075 561.07990491 367.64303705 561.06253718 360.68068504 561.03524017 C352.67386194 561.00396048 344.66723051 560.99323804 336.66035068 560.99471128 C328.09848318 560.99607309 319.53668799 560.98211116 310.97484255 560.96381807 C308.5301774 560.95959099 306.08552424 560.95814049 303.64085579 560.95734024 C262.93770289 560.93159747 262.93770289 560.93159747 245.95558739 556.37361908 C244.70950706 556.04720428 244.70950706 556.04720428 243.4382534 555.71419525 C198.56187074 543.5978728 161.5816859 512.51050474 138.34621239 472.67049408 C123.53197034 446.61262217 116.06738665 417.2640691 115.84230614 387.32283783 C115.83423439 386.28343552 115.82616264 385.2440332 115.8178463 384.17313385 C115.80411366 381.99412912 115.79334395 379.81510385 115.78542137 377.63607025 C115.77381838 375.41042008 115.75323825 373.18479946 115.72389793 370.95931244 C115.68136545 367.72613071 115.66508227 364.49376394 115.65480614 361.26033783 C115.63729805 360.26757339 115.61978996 359.27480896 115.60175133 358.25196075 C115.61562141 353.85070348 115.64175862 351.33952576 117.98219872 347.52132416 C121.96042298 343.92356532 125.73621368 344.45599921 130.85719872 344.43074799 C131.76629494 344.4225705 132.67539116 344.41439301 133.61203575 344.40596771 C136.62888996 344.38109829 139.64569709 344.36459426 142.66261864 344.35018158 C144.20609757 344.34219606 144.20609757 344.34219606 145.7807579 344.33404922 C151.226478 344.30731167 156.67217511 344.28793818 162.1179409 344.27352142 C167.74733607 344.25686671 173.37614659 344.21208349 179.00532055 344.16114998 C183.3298772 344.12752166 187.65429429 344.11594884 191.97896957 344.11029434 C194.05424216 344.1035703 196.1295052 344.08831846 198.20465088 344.06440353 C201.10885189 344.03284239 204.01146552 344.03270163 206.91579247 344.04012299 C208.20256889 344.01551498 208.20256889 344.01551498 209.51534081 343.99040985 C213.87945379 344.03607871 215.56380768 344.21892225 219.11514854 347.00002289 C221.32749935 349.9532133 221.69583533 351.27170275 221.68214989 354.91268158 C221.69528221 355.9270932 221.70841454 356.94150482 221.72194481 357.98665619 C221.71654686 359.06310394 221.71114891 360.1395517 221.70558739 361.24861908 C222.18832692 386.86340744 226.75117633 412.62415592 244.76808739 432.06111908 C257.15641517 443.58648285 273.40885348 449.76716309 290.27931786 449.73714447 C290.97269753 449.7372905 291.66607719 449.73743652 292.38046837 449.73758698 C294.65293665 449.73689504 296.92532108 449.72913658 299.19777489 449.72127533 C300.78103656 449.71940859 302.36429881 449.7179859 303.94756126 449.71698761 C308.10021644 449.71318257 312.25283625 449.70336959 316.40547752 449.69228363 C320.64873845 449.68202611 324.89200512 449.67748071 329.13527489 449.6724472 C337.45039523 449.66174541 345.7654869 449.64469332 354.08058739 449.62361908 C354.41155418 448.60042572 354.74252098 447.57723236 355.08351707 446.52303314 C361.61446465 426.34116812 368.18276619 406.17374495 374.9448452 386.06795502 C378.45036956 375.62576156 381.79125554 365.13582038 385.08058739 354.62361908 C384.22503258 354.63250153 383.36947777 354.64138397 382.48799706 354.65053558 C374.42485154 354.73068667 366.36183984 354.79158603 358.29838753 354.83086777 C354.15286069 354.85174195 350.00766304 354.88005593 345.86232567 354.92537689 C341.86173582 354.96884157 337.86146257 354.99275746 333.86065483 355.00312805 C332.33439461 355.01051839 330.80815171 355.02495019 329.28202629 355.04653931 C327.14386125 355.07558332 325.00700392 355.07957493 322.86867332 355.07772064 C321.04333061 355.09104431 321.04333061 355.09104431 319.18111229 355.10463715 C316.08058739 354.62361908 316.08058739 354.62361908 313.68370628 352.88703156 C310.92071125 348.98601246 311.52060203 345.21801807 312.08058739 340.62361908 C312.82524895 337.4110312 313.90437536 334.39752402 315.08839989 331.32283783 C315.405756 330.45980545 315.72311211 329.59677307 316.05008507 328.7075882 C317.08610576 325.90259054 318.14507616 323.10693917 319.20558739 320.31111908 C319.93310485 318.36153357 320.65940895 316.41149488 321.38454247 314.46102142 C322.87036135 310.47285807 324.36610874 306.48861848 325.86916161 302.50691986 C327.64443044 297.79762972 329.38951243 293.07807652 331.11861229 288.35166168 C332.36431171 284.9491705 333.62064475 281.55067483 334.87959862 278.15306854 C335.46727041 276.56269714 336.05151671 274.97105534 336.63216209 273.37810516 C337.44047456 271.16631202 338.26427444 268.96090494 339.09230614 266.75643158 C339.32196571 266.11773636 339.55162529 265.47904114 339.78824425 264.82099152 C341.43989468 260.49105583 343.5366602 256.65904728 347.08058739 253.62361908 C350.2771368 252.87415886 350.2771368 252.87415886 353.95694542 252.87517548 C354.63626497 252.86722666 355.31558452 252.85927785 356.01548952 252.85108817 C358.28552498 252.83188016 360.55305474 252.85544479 362.82301903 252.87899017 C364.4527231 252.87413282 366.08242121 252.86669269 367.71210289 252.85686493 C372.13374056 252.83806061 376.55449176 252.85688365 380.97606015 252.88352919 C385.60265496 252.90616678 390.2292064 252.89794262 394.85584068 252.89403534 C402.62434432 252.89226981 410.39249876 252.91442355 418.16090965 252.9512558 C427.1445871 252.99360585 436.12775328 253.00060763 445.11151034 252.98813188 C453.75226158 252.9767465 462.39283263 252.98803253 471.03355789 253.01047897 C474.71172922 253.01977209 478.38979039 253.02151824 482.06797028 253.01730728 C486.3978548 253.01354255 490.72721824 253.02973968 495.05698395 253.06142807 C496.64688015 253.06991955 498.23682921 253.0716109 499.82673836 253.06604767 C501.99547004 253.05960982 504.16264178 253.07774568 506.331213 253.10222626 C508.15215272 253.10838487 508.15215272 253.10838487 510.00987911 253.11466789 C513.08058739 253.62361908 513.08058739 253.62361908 515.50242329 255.03120613 C517.08058739 257.62361908 517.08058739 257.62361908 517.08058739 267.62361908 C513.12058739 279.50361908 509.16058739 291.38361908 505.08058739 303.62361908 C533.79058739 303.95361908 562.50058739 304.28361908 592.08058739 304.62361908 C589.95621239 298.55986908 587.83183739 292.49611908 585.64308739 286.24861908 C579.80502738 269.54888606 574.06786147 252.8169899 568.39308739 236.06111908 C561.77689432 216.52595234 555.02118281 197.04587819 548.08058739 177.62361908 C547.87649254 178.22417114 547.67239769 178.82472321 547.46211815 179.44347382 C545.33091214 185.70895298 543.18753487 191.9701726 541.03713036 198.22908783 C540.23681608 200.56363469 539.43958247 202.89924006 538.64552879 205.23592377 C537.50181833 208.59977808 536.34698254 211.95963553 535.18996239 215.31893158 C534.83875328 216.35977905 534.48754417 217.40062653 534.12569237 218.47301483 C531.95210254 224.74073742 529.83421421 229.86999226 525.08058739 234.62361908 C523.27110386 234.8836813 523.27110386 234.8836813 521.0393734 234.89777374 C520.19402031 234.90774887 519.34866722 234.917724 518.47769737 234.9280014 C517.54831856 234.92866608 516.61893974 234.92933075 515.66139793 234.93001556 C514.68402672 234.93833908 513.7066555 234.9466626 512.69966698 234.95523834 C509.45550664 234.97941376 506.21154711 234.98812013 502.96730614 234.99471283 C500.71769714 235.00367415 498.46808878 235.01279589 496.21848106 235.02207184 C491.49647636 235.03858542 486.77454275 235.04626613 482.05251122 235.04915619 C475.99936018 235.05453921 469.94687674 235.09220642 463.89391422 235.13790035 C459.24507772 235.16763377 454.59640258 235.17487896 449.94747925 235.17588234 C447.71592021 235.18009281 445.48436105 235.19256003 443.25289536 235.21339989 C440.13075076 235.24023339 437.01016117 235.2355119 433.88796043 235.22298431 C432.50300125 235.24523575 432.50300125 235.24523575 431.0900631 235.26793671 C426.62552199 235.21688314 424.67322326 235.06596648 420.99764061 232.32248688 C418.43814463 228.71917467 418.4089282 225.83757221 419.08058739 221.62361908 C419.77545166 218.70829295 420.73218923 215.93532833 421.76418114 213.12361908 C422.05100258 212.31070908 422.33782402 211.49779907 422.63333702 210.66025543 C423.58321202 207.9770508 424.55059859 205.30051759 425.51808739 202.62361908 C426.19179805 200.73072974 426.86430039 198.83740996 427.53566551 196.94368744 C428.96185814 192.92689815 430.39519349 188.91276057 431.83400536 184.90047455 C434.11180708 178.54472306 436.36624503 172.18084093 438.61574364 165.81502533 C441.14032217 158.67199852 443.66741963 151.52989946 446.2023983 144.39055634 C450.19460521 133.14631081 454.1490341 121.88920857 458.08058739 110.62361908 C457.06229345 109.38160602 457.06229345 109.38160602 454.93047142 109.51682281 C453.98243645 109.52507584 453.03440147 109.53332886 452.05763817 109.54183197 C450.98627617 109.54836288 449.91491417 109.5548938 448.81108665 109.56162262 C447.64447502 109.57305801 446.47786339 109.58449341 445.27589989 109.59627533 C442.83189089 109.60892257 440.3878804 109.62128346 437.94386864 109.6333847 C434.07028681 109.65822482 430.19678126 109.68619495 426.32326317 109.71956635 C422.59913697 109.74969528 418.8751088 109.76752347 415.15089989 109.78377533 C413.98833672 109.79723495 412.82577354 109.81069458 411.62798119 109.82456207 C410.55031487 109.82794083 409.47264854 109.83131958 408.36232567 109.83480072 C407.41269951 109.84225815 406.46307335 109.84971558 405.48467064 109.85739899 C403.08058739 109.62361908 403.08058739 109.62361908 400.08058739 107.62361908 C400.49631004 109.52434174 400.49631004 109.52434174 400.92043114 111.46346283 C401.2865503 113.16263123 401.6524225 114.86185286 402.01808739 116.56111908 C402.20048973 117.39191986 402.38289207 118.22272064 402.57082176 119.0786972 C402.74806786 119.90691986 402.92531395 120.73514252 403.10793114 121.58846283 C403.3514431 122.71175995 403.3514431 122.71175995 403.5998745 123.85774994 C404.81084635 130.82529701 405.25126732 137.74756674 405.31886864 144.81111908 C405.33369537 146.08892242 405.33369537 146.08892242 405.34882164 147.39253998 C405.59380604 173.99775482 403.2730664 197.72397165 395.17824364 223.22908783 C394.75297386 224.57716522 394.75297386 224.57716522 394.31911278 225.9524765 C392.64709008 229.55854792 391.01147235 231.9070459 388.08058739 234.62361908 C385.10870063 235.47041211 382.26079443 235.4389665 379.18605614 235.39315033 C378.32103981 235.40448502 377.45602348 235.4158197 376.56479454 235.42749786 C373.79861663 235.45815255 371.03437609 235.44843301 368.26808739 235.43611908 C365.55145487 235.45041077 362.83497131 235.47307694 360.11839867 235.4958725 C358.33010641 235.51072492 356.54179377 235.52329801 354.75346947 235.53359222 C342.45855151 235.62088399 330.42153726 236.35658604 318.33058739 238.74861908 C317.22151024 238.96743744 316.11243309 239.1862558 314.96974754 239.41170502 C293.57234802 243.84681356 274.3886677 251.82007336 258.08058739 266.62361908 C257.41156395 267.19983002 256.74254051 267.77604095 256.05324364 268.36971283 C239.86348788 283.23515319 231.05280134 304.18793913 225.19435692 324.93978119 C223.74498293 329.76184507 222.44994393 332.09697342 218.08058739 334.62361908 C214.28004432 335.19996301 210.51806215 335.12856057 206.68092918 335.07772064 C205.52927773 335.07830475 204.37762627 335.07888885 203.19107628 335.07949066 C199.38701227 335.07670545 195.58373316 335.04559093 191.77980614 335.01424408 C189.1413675 335.00678329 186.50292332 335.0010896 183.86447716 334.9970932 C177.63129835 334.98467271 171.39840098 334.951864 165.16534597 334.91169524 C158.06746051 334.86694839 150.96956144 334.84498322 143.87156999 334.8249135 C129.27443078 334.78313032 114.67751302 334.7127965 100.08058739 334.62361908 C100.08611814 336.33428118 100.08611814 336.33428118 100.09176064 338.07950211 C100.18048091 365.80363272 100.24625332 393.52774497 100.28783607 421.25198746 C100.29194214 423.91883351 100.29608085 426.58567948 100.30031395 429.25252533 C100.30136319 429.91539257 100.30241243 430.5782598 100.30349347 431.26121393 C100.32090681 441.99945753 100.35244956 452.73761562 100.38919857 463.47580847 C100.42658225 474.49118437 100.44851829 485.50651299 100.45694137 496.52194905 C100.46216501 502.71045274 100.47447783 508.89876237 100.50350761 515.08720398 C100.53059345 520.90823114 100.53904616 526.72898371 100.53301811 532.5500679 C100.53412141 534.689879 100.54211568 536.82969899 100.55740929 538.96945572 C100.57723005 541.88485199 100.57255534 544.79920345 100.56160545 547.7146225 C100.57325682 548.56676165 100.58490819 549.41890081 100.59691262 550.29686236 C100.5602399 553.89441322 100.4052189 556.15859777 98.31813145 559.14826488 C95.87277824 560.76064078 94.69542929 561.12721536 91.79886436 561.13828278 C90.95076195 561.15100723 90.10265953 561.16373169 89.22885704 561.17684174 C88.30666878 561.17031586 87.38448051 561.16378998 86.43434715 561.15706635 C85.45668388 561.16568192 84.47902061 561.17429749 83.47173119 561.18317413 C80.23821643 561.20588681 77.00556465 561.19908505 73.77199364 561.19002533 C71.52524113 561.19525875 69.27849083 561.20153419 67.031744 561.2088089 C62.32160165 561.21922308 57.61176121 561.21463712 52.90163231 561.2000351 C46.86416542 561.18285085 40.82765051 561.20633362 34.79028988 561.2415247 C30.14999643 561.26348108 25.50993135 561.26206132 20.8696022 561.25375938 C18.6436458 561.25293881 16.4176728 561.25982233 14.19176483 561.27453041 C11.07932153 561.29194201 7.96859618 561.27746063 4.85622215 561.2547226 C3.93605812 561.26641479 3.01589409 561.27810699 2.0678463 561.2901535 C1.21692406 561.27749954 0.36600182 561.26484558 -0.51070595 561.25180817 C-1.24571044 561.25122186 -1.98071493 561.25063555 -2.73799229 561.25003147 C-6.24859124 560.24193475 -7.66643656 558.46941268 -9.91941261 555.62361908 C-10.64930311 552.56002074 -10.59094222 549.57052591 -10.54861832 546.43279266 C-10.55588552 545.4999159 -10.56315272 544.56703913 -10.57064015 543.60589337 C-10.58897021 540.46214548 -10.57149707 537.31960533 -10.55433083 534.17586517 C-10.56008882 531.90646679 -10.56802776 529.63707306 -10.57796705 527.36768913 C-10.59890751 521.11764726 -10.58849229 514.86798539 -10.57303596 508.61794186 C-10.5629136 502.57424812 -10.57619526 496.5306351 -10.58877278 490.48695725 C-10.61512372 477.36000015 -10.61281076 464.23316458 -10.59837822 451.10619587 C-10.58580995 439.61872477 -10.58251248 428.13129827 -10.58849144 416.64382172 C-10.58887337 415.88240031 -10.58925529 415.1209789 -10.58964879 414.33648412 C-10.59120543 411.24577585 -10.59279743 408.15506761 -10.59444761 405.06435939 C-10.60974924 376.05974021 -10.59586482 347.05519854 -10.56896312 318.05059132 C-10.54523434 292.27085593 -10.54735745 266.49124402 -10.57126808 240.7115097 C-10.5980301 211.76059893 -10.60866414 182.80975665 -10.59320676 153.85883522 C-10.59160313 150.77369564 -10.59003893 147.68855605 -10.58849144 144.60341644 C-10.58809605 143.8437533 -10.58770067 143.08409015 -10.5872933 142.30140691 C-10.58160131 130.81998605 -10.58826589 119.33861464 -10.60088921 107.85720062 C-10.61516803 94.8048059 -10.61164885 81.75255194 -10.58448549 68.70017481 C-10.57107554 62.03633315 -10.56625156 55.37268719 -10.58273125 48.70883179 C-10.59757486 42.61453381 -10.58953466 36.52072084 -10.56284349 30.42646718 C-10.5572348 28.21591462 -10.56015195 26.00532151 -10.57222243 23.7947948 C-10.58732352 20.80075403 -10.5719415 17.80839681 -10.54861832 14.8144455 C-10.56032415 13.94661981 -10.57202998 13.07879412 -10.58409053 12.18467069 C-10.51728917 7.92427867 -10.28380672 6.11921434 -7.68755054 2.58816862 C-4.75595977 0.50761647 -3.52998431 -0.00115104 0 0 Z M384.08058739 70.62361908 C385.08058739 72.62361908 385.08058739 72.62361908 385.08058739 72.62361908 Z M385.08058739 72.62361908 C386.08058739 74.62361908 386.08058739 74.62361908 386.08058739 74.62361908 Z M388.08058739 77.62361908 C389.08058739 80.62361908 389.08058739 80.62361908 389.08058739 80.62361908 Z M389.08058739 80.62361908 C390.08058739 82.62361908 390.08058739 82.62361908 390.08058739 82.62361908 Z M100.08058739 109.62361908 C100.08058739 146.58361908 100.08058739 183.54361908 100.08058739 221.62361908 C123.68408804 221.7111306 123.68408804 221.7111306 147.28761864 221.77010345 C156.92357274 221.78785203 166.55944771 221.80863065 176.19533348 221.84993744 C183.21546383 221.88001653 190.23552951 221.89923559 197.25572252 221.90588456 C200.96638219 221.90976579 204.676857 221.91876467 208.38745689 221.94080925 C234.24036931 222.08827166 260.88188113 221.41761717 281.07277489 202.77986908 C291.34140211 191.75208264 298.58506075 177.45802337 298.29152489 162.07674408 C297.06671538 147.83266316 291.73092149 133.04017155 280.64308739 123.53377533 C265.86454067 112.26093501 250.33164819 109.12992573 231.99709129 109.28304291 C230.54676901 109.28389177 229.09644543 109.28340899 227.64612389 109.28171539 C223.75646445 109.28086412 219.86708967 109.29834692 215.97749567 109.31943727 C211.89496191 109.33835097 207.81241968 109.33996597 203.72984886 109.34351349 C196.02019694 109.35279122 188.31067455 109.37734632 180.60107934 109.40756196 C170.16808664 109.44755268 159.73505784 109.46359542 149.30200768 109.48106861 C132.89477079 109.50917116 116.48780709 109.56896883 100.08058739 109.62361908 Z " fill="#FEFEFE" transform="translate(167.91941261291504,210.37638092041016)"/>
<path d="M0 0 C30.69 0 61.38 0 93 0 C96.37636476 9.00363936 96.37636476 9.00363936 97.71278381 12.934021 C98.01826456 13.83072258 98.32374531 14.72742416 98.63848305 15.65129852 C98.96411421 16.61167274 99.28974537 17.57204697 99.62524414 18.56152344 C99.97847937 19.60057076 100.33171459 20.63961807 100.69565392 21.71015167 C101.87301601 25.17598687 103.04804953 28.64260506 104.22265625 32.109375 C104.63474901 33.32459587 105.04684177 34.53981674 105.4714222 35.79186249 C115.81742618 66.31116551 126.00097672 96.88461312 136.17758429 127.46072531 C138.70573715 135.05649857 141.23565714 142.6516829 143.76571512 150.24682176 C147.85882329 162.53424552 151.95085395 174.82202764 156.04199219 187.11010742 C160.19102629 199.57200565 164.34311772 212.03288171 168.49786568 224.49287605 C171.68797217 234.06016472 174.87289035 243.62916401 178.0546875 253.19921875 C185.74351877 276.31856313 193.44611781 299.43149547 201.34997559 322.47845459 C206.28995686 336.88332518 211.13462054 351.3179495 215.93383789 365.77026367 C218.41553041 373.24343307 220.9023975 380.71485609 223.39340401 388.18492699 C224.12628843 390.38271957 224.85904707 392.58055405 225.59178162 394.77839661 C226.43346742 397.30303165 227.2751622 399.82766369 228.11689091 402.35228443 C231.91285303 413.73765294 235.70787206 425.12333583 239.50301361 436.50897789 C241.48718372 442.46159425 243.47139325 448.41419748 245.45559931 454.36680186 C246.58050854 457.74152298 247.70541527 461.11624493 248.83032227 464.4909668 C249.28407795 465.85223389 249.73783365 467.21350098 250.19158936 468.57476807 C269.20143127 525.60429382 269.20143127 525.60429382 270.11850166 528.37112999 C270.7008381 530.10781708 271.29548183 531.84043129 271.90302849 533.56846046 C272.17885828 534.35985609 272.45468807 535.15125172 272.73887634 535.96662903 C272.98282607 536.65207196 273.2267758 537.3375149 273.47811794 538.04372883 C274 540 274 540 274 544 C242.32 544 210.64 544 178 544 C175.174375 535.646875 172.34875 527.29375 169.4375 518.6875 C163.49222258 501.13979404 157.50698219 483.60846176 151.375 466.125 C146.09323763 451.05782157 140.87934924 435.96847929 135.72808838 420.85614014 C134.95501333 418.58873129 134.18089484 416.32167791 133.40570068 414.05499268 C132.33110361 410.91142747 131.26060525 407.76649841 130.19140625 404.62109375 C129.86722214 403.67438309 129.54303802 402.72767242 129.20903015 401.75227356 C128.91647842 400.88841537 128.6239267 400.02455719 128.32250977 399.13452148 C128.06574966 398.38041489 127.80898956 397.62630829 127.54444885 396.84934998 C127 395 127 395 127 393 C74.2 393 21.4 393 -33 393 C-33.66 395.97 -34.32 398.94 -35 402 C-35.43764158 403.50665371 -35.90082893 405.00672489 -36.41357422 406.48950195 C-36.67551071 407.25506912 -36.9374472 408.02063629 -37.20732117 408.80940247 C-37.6267675 410.01169746 -37.6267675 410.01169746 -38.0546875 411.23828125 C-38.35176102 412.10301559 -38.64883453 412.96774994 -38.95491028 413.85868835 C-39.59209331 415.71208565 -40.23139804 417.56475467 -40.87265015 419.41674805 C-42.5959794 424.39538302 -44.30240774 429.37982 -46.01171875 434.36328125 C-46.35618546 435.36610138 -46.70065216 436.36892151 -47.05555725 437.40213013 C-49.97935868 445.91949728 -52.84937768 454.45375691 -55.6875 463 C-56.14605485 464.37915791 -56.60463277 465.75830816 -57.06323242 467.13745117 C-58.08311517 470.20569435 -59.10225892 473.27418215 -60.12109375 476.34277344 C-63.61261678 486.8572814 -67.10954579 497.36999124 -70.60943317 507.88171768 C-71.98841738 512.02367733 -73.36594244 516.16611847 -74.74236107 520.30893135 C-75.81011604 523.52145722 -76.87982801 526.73333079 -77.94921875 529.9453125 C-78.34343018 531.1331131 -78.7376416 532.3209137 -79.14379883 533.54470825 C-79.68689697 535.17410843 -79.68689697 535.17410843 -80.2409668 536.83642578 C-80.71629097 538.26572922 -80.71629097 538.26572922 -81.20121765 539.72390747 C-82 542 -82 542 -83 544 C-101.41255981 544.07044705 -119.82508407 544.12316142 -138.23775005 544.15543652 C-146.78932418 544.17082853 -155.34081401 544.19176909 -163.89233398 544.22631836 C-171.35602199 544.25645796 -178.81964888 544.2756305 -186.28339607 544.28226548 C-190.2261598 544.28613671 -194.16874884 544.29506908 -198.11145592 544.31719017 C-244.09431387 544.56501131 -284.23208108 535.69595405 -320 505 C-321.23169922 503.95392578 -321.23169922 503.95392578 -322.48828125 502.88671875 C-350.65376409 478.31491793 -368.21522827 445.31630739 -376 409 C-376.17934082 408.17886719 -376.35868164 407.35773438 -376.54345703 406.51171875 C-380.1232135 389.13550263 -379.3460966 371.16187888 -379.203125 353.51171875 C-379.19872406 352.66798706 -379.19432312 351.82425537 -379.18978882 350.95495605 C-379.11815999 345.11815999 -379.11815999 345.11815999 -378 344 C-375.2611158 343.90483789 -372.54752059 343.87445406 -369.80834961 343.88647461 C-368.94988937 343.88632858 -368.09142914 343.88618256 -367.20695496 343.8860321 C-364.35539262 343.88673153 -361.50389475 343.8945253 -358.65234375 343.90234375 C-356.68079158 343.90420782 -354.70923895 343.90563178 -352.73768616 343.90663147 C-347.53773733 343.91045749 -342.33781625 343.92028848 -337.13787842 343.93133545 C-331.83606339 343.94154778 -326.5342439 343.94612871 -321.23242188 343.95117188 C-310.82160237 343.96191067 -300.41080349 343.97898809 -290 344 C-289.96045197 345.02868698 -289.96045197 345.02868698 -289.92010498 346.07815552 C-289.79796834 349.22146754 -289.67244681 352.36463591 -289.546875 355.5078125 C-289.50546387 356.58651611 -289.46405273 357.66521973 -289.42138672 358.77661133 C-288.41862694 383.60910576 -283.21323906 408.15388451 -266 427 C-265.40960938 427.69351562 -264.81921875 428.38703125 -264.2109375 429.1015625 C-254.1926156 440.14303216 -238.52236787 446.63612909 -224 449 C-221.29412629 449.11526205 -218.61143883 449.18451969 -215.9050293 449.20532227 C-215.10450638 449.21522186 -214.30398346 449.22512146 -213.47920227 449.23532104 C-210.84423742 449.26680277 -208.20925456 449.29164055 -205.57421875 449.31640625 C-203.74290001 449.3369873 -201.9115859 449.35798407 -200.08027649 449.37937927 C-195.26841996 449.43448111 -190.45652141 449.48394267 -185.64459229 449.53222656 C-180.73112259 449.58252855 -175.81771366 449.63816916 -170.90429688 449.69335938 C-161.26958321 449.80079548 -151.6348167 449.90227257 -142 450 C-141.76007324 448.79577393 -141.52014648 447.59154785 -141.27294922 446.35083008 C-139.83265952 439.89012221 -137.7144519 433.66402629 -135.6328125 427.38671875 C-135.19671076 426.06143892 -134.7609791 424.73603725 -134.32559204 423.41052246 C-133.16859189 419.89180966 -132.00623856 416.37488792 -130.84269714 412.85833359 C-129.64374131 409.23182675 -128.44967453 405.60371045 -127.25488281 401.97583008 C-120.55234211 381.63426426 -113.80951832 361.3060138 -107 341 C-106.67 340.01 -106.34 339.02 -106 338 C-128.44 338 -150.88 338 -174 338 C-174.99 336.02 -175.98 334.04 -177 332 C-177.99 331.34 -178.98 330.68 -180 330 C-178.52842882 322.37004225 -176.09087233 315.31421882 -173.38671875 308.0390625 C-172.70957573 306.19953506 -172.70957573 306.19953506 -172.01875305 304.32284546 C-171.06669867 301.73794937 -170.11068141 299.15456665 -169.15161133 296.57226562 C-167.93464121 293.29492596 -166.72649251 290.01442132 -165.52121258 286.73276711 C-164.35569088 283.56243571 -163.1834795 280.39459337 -162.01171875 277.2265625 C-161.58444992 276.06476471 -161.15718109 274.90296692 -160.71696472 273.70596313 C-160.30336197 272.59466034 -159.88975922 271.48335754 -159.46362305 270.33837891 C-159.10769577 269.3773526 -158.75176849 268.41632629 -158.38505554 267.42617798 C-156.41415282 262.55080418 -154.17605774 257.78732702 -152 253 C-99.86 253 -47.72 253 6 253 C2.20388916 270.08249878 -4.34523904 286.43962861 -10 303 C26.63 303.33 63.26 303.66 101 304 C99.02 298.72 97.04 293.44 95 288 C93.79306944 284.56045597 92.60050034 281.12303394 91.44140625 277.66796875 C91.13559128 276.76446686 90.82977631 275.86096497 90.51469421 274.93008423 C89.8645206 273.00904551 89.21538948 271.08765367 88.56726074 269.16592407 C86.81809927 263.98086416 85.06011331 258.79880399 83.30078125 253.6171875 C82.94229095 252.5613295 82.58380066 251.5054715 82.21444702 250.4176178 C78.62337102 239.86016196 74.94147062 229.33517464 71.25 218.8125 C65.34758924 201.976974 59.61431882 185.09054747 54.0329895 168.14588928 C52.81220015 164.44154574 51.5776916 160.74227428 50.32861328 157.04736328 C49.91156883 155.80962914 49.91156883 155.80962914 49.48609924 154.54689026 C48.94538449 152.94346608 48.40229292 151.34084098 47.85655212 149.73912048 C46 144.22363908 46 144.22363908 46 142 C45.34 142 44.68 142 44 142 C43.89816406 142.96502441 43.79632812 143.93004883 43.69140625 144.92431641 C43.02349792 149.56090698 41.50682988 153.81230472 39.9375 158.2109375 C39.62994781 159.08901062 39.32239563 159.96708374 39.00552368 160.87176514 C38.0100557 163.70846594 37.00531801 166.5417767 36 169.375 C35.31515335 171.318693 34.63074711 173.26254123 33.94677734 175.20654297 C32.27505958 179.95175164 30.59511185 184.69398799 28.91101074 189.43481445 C28.08150686 191.77049644 27.25373387 194.10678145 26.42675781 196.44335938 C25.16519612 200.00594613 23.8969906 203.56612123 22.625 207.125 C22.26277344 208.14126465 21.90054687 209.1575293 21.52734375 210.20458984 C21.20121094 211.10902832 20.87507813 212.0134668 20.5390625 212.9453125 C20.26271973 213.71375488 19.98637695 214.48219727 19.70166016 215.27392578 C19 217 19 217 18 218 C15.07805335 218.09525367 12.17979671 218.12552736 9.25756836 218.11352539 C7.88209587 218.11374443 7.88209587 218.11374443 6.47883606 218.1139679 C3.43248164 218.1132684 0.38618755 218.10547428 -2.66015625 218.09765625 C-4.76622993 218.0957922 -6.87230403 218.09436824 -8.9783783 218.09336853 C-14.53342883 218.08954231 -20.08845341 218.07971114 -25.64349365 218.06866455 C-31.3072474 218.05845267 -36.97100533 218.05387139 -42.63476562 218.04882812 C-53.75652185 218.03808896 -64.87825877 218.0210113 -76 218 C-74.02063279 210.33063996 -71.66604847 202.87316477 -69.0078125 195.4140625 C-68.62601334 194.33265991 -68.24421417 193.25125732 -67.85084534 192.13708496 C-67.03547632 189.82923735 -66.21831892 187.52202091 -65.39950562 185.21539307 C-64.10102494 181.55746017 -62.80737295 177.89784995 -61.51489258 174.23779297 C-59.38627445 168.21185705 -57.25405651 162.18720415 -55.12030029 156.16308594 C-52.63722955 149.1523173 -50.15767289 142.14032426 -47.6875 135.125 C-47.44442108 134.43487823 -47.20134216 133.74475647 -46.95089722 133.03372192 C-41.52214243 117.60498885 -36.22007979 102.13246352 -30.90872955 86.66304016 C-16.10586419 43.5505345 -16.10586419 43.5505345 -10.84341431 28.35470581 C-10.16287558 26.38770895 -9.48378874 24.42020909 -8.8062439 22.45217896 C-7.88125055 19.76622608 -6.95111107 17.0821118 -6.01953125 14.3984375 C-5.75492096 13.62651566 -5.49031067 12.85459381 -5.21768188 12.0592804 C-4.96771454 11.34281845 -4.71774719 10.62635651 -4.46020508 9.88818359 C-4.24898514 9.27735931 -4.0377652 8.66653503 -3.82014465 8.03720093 C-2.71236365 5.28552477 -1.32656703 2.65313406 0 0 Z " fill="#FEFEFE" transform="translate(671,219)"/>
<path d="M0 0 C0.97010533 -0.01180534 1.94021066 -0.02361068 2.93971312 -0.03577375 C3.99776321 -0.02325591 5.05581331 -0.01073806 6.14592552 0.00215912 C7.276103 -0.0042297 8.40628049 -0.01061852 9.57070577 -0.01720095 C13.36683782 -0.03248962 17.16193268 -0.01196148 20.95802879 0.0083847 C23.67668756 0.00764847 26.39531208 -0.0005766 29.11395836 -0.00843048 C35.74055643 -0.02296616 42.36684831 -0.01070971 48.9934174 0.01068276 C56.72362064 0.03471775 64.45375404 0.03297639 72.18398635 0.03037685 C85.99463548 0.02668465 99.8051409 0.04751923 113.61574364 0.08162689 C126.98394474 0.11462934 140.35199478 0.12890055 153.72023582 0.12264252 C168.29220247 0.11585448 182.8641058 0.11841372 197.43606317 0.13800192 C198.20941918 0.1390414 198.98277518 0.14008089 199.77956622 0.14115188 C201.33244116 0.14324267 202.88531606 0.14535364 204.43819094 0.14748505 C209.81042607 0.15434283 215.18264156 0.15505612 220.55488014 0.1536026 C227.12430727 0.15215173 233.69361217 0.16205199 240.26299895 0.18554896 C243.60716742 0.19728765 246.95102719 0.20298272 250.29523468 0.1987114 C285.23285385 0.16262873 315.52143809 6.56006046 344.08058739 27.62361908 C345.00742332 28.3068222 345.93425926 28.99002533 346.88918114 29.69393158 C360.65922449 40.45625373 372.29615093 53.19572126 382.08058739 67.62361908 C377.55302381 60.18143645 372.70050833 53.27878862 367.08058739 46.62361908 C366.08285301 45.40545502 366.08285301 45.40545502 365.06496239 44.16268158 C356.27693547 33.84488701 345.4963318 26.11674833 333.82277489 19.37752533 C329.67859444 16.72690279 327.41564998 14.96386944 326.20558739 10.12361908 C326.0318069 5.25776542 326.0318069 5.25776542 328.08058739 2.62361908 C331.53308457 0.38506904 334.46861184 0.36796874 338.52625084 0.35619354 C339.49388755 0.34939687 339.49388755 0.34939687 340.48107249 0.3424629 C342.64053784 0.3298125 344.79975121 0.33143963 346.9592495 0.33309174 C348.50836066 0.32710694 350.05746885 0.3203015 351.6065731 0.31273651 C355.81316532 0.2950659 360.01967617 0.29038073 364.22630191 0.28910494 C367.73780889 0.28720568 371.24929692 0.27984798 374.76079661 0.27276075 C383.04473078 0.25647572 391.32862147 0.25159196 399.61256981 0.25301361 C408.15934736 0.2542156 416.70587261 0.23310268 425.25258631 0.20152628 C432.59027608 0.17538228 439.92788334 0.1646455 447.26561934 0.16592443 C451.64825056 0.16643455 456.0306575 0.16072372 460.41324234 0.13956833 C464.53456756 0.12021701 468.65545381 0.12003991 472.77679443 0.13460159 C474.28889544 0.13669457 475.80102371 0.13195969 477.31307793 0.11988068 C479.37854896 0.10444991 481.44250211 0.11371922 483.50794029 0.12914276 C484.66328238 0.12805323 485.81862448 0.12696369 487.00897694 0.12584114 C490.70306575 0.72449645 492.39031636 2.08801903 495.08058739 4.62361908 C495.70807884 3.97462143 496.3355703 3.32562378 496.98207664 2.65695953 C501.2640301 -0.15299334 504.63992032 0.05379045 509.65675926 0.09017181 C510.61506142 0.08155624 511.57336357 0.07294067 512.56070518 0.06406403 C515.72385844 0.04138773 518.88612702 0.04814577 522.04933739 0.05721283 C524.24982021 0.05197826 526.45030079 0.04570239 528.65077782 0.03842926 C533.26078926 0.02802215 537.87049208 0.03259158 542.48048973 0.04720306 C548.3890199 0.06439706 554.2965782 0.04088888 560.20499992 0.00571346 C564.74835724 -0.01624238 569.29148133 -0.01482349 573.83487511 -0.00652122 C576.01338327 -0.00570083 578.19190841 -0.01258097 580.37036705 -0.02729225 C583.41565861 -0.04470546 586.45919472 -0.03022202 589.50441551 -0.00748444 C590.85425278 -0.02502274 590.85425278 -0.02502274 592.23135948 -0.04291534 C593.48033264 -0.0239344 593.48033264 -0.0239344 594.75453758 -0.00457001 C595.47349457 -0.0039837 596.19245155 -0.00339739 596.93319511 -0.00279331 C600.30775125 0.9815931 601.85099676 2.96695187 604.08058739 5.62361908 C605.47168636 8.48060989 605.47168636 8.48060989 606.59317589 11.75295258 C606.91876191 12.68486097 606.91876191 12.68486097 607.25092542 13.6355958 C607.99422056 15.777512 608.71516792 17.92629557 609.43630028 20.07576752 C609.98926943 21.68894874 610.54321034 23.3017971 611.09799099 24.91435623 C613.11729536 30.80903714 615.09847636 36.71635042 617.08058739 42.62361908 C617.88983902 45.02908007 618.69921495 47.43449925 619.50869942 49.8398819 C625.68362921 68.19937109 631.80407269 86.57693995 637.91688418 104.95718606 C640.70890766 113.35188328 643.50480426 121.74528914 646.30091418 130.13862595 C651.30239081 145.15224463 656.30141497 160.16667858 661.29860497 175.18172455 C661.59561442 176.07414623 661.89262388 176.96656791 662.19863362 177.88603267 C662.64463978 179.22614445 662.64463978 179.22614445 663.09965616 180.59332919 C663.70112791 182.40056556 664.30260043 184.20780168 664.90407372 186.01503754 C665.20209996 186.91051161 665.50012621 187.80598568 665.80718356 188.72859533 C669.11496201 198.66725971 672.42346839 208.60568172 675.73219872 218.54402924 C676.02852821 219.43410857 676.3248577 220.3241879 676.63016688 221.24123934 C681.61293601 236.20771753 686.5969863 251.1737689 691.58166844 266.13961005 C694.36309622 274.49071508 697.14375928 282.84207336 699.92253494 291.19406128 C710.50472603 323.00007356 721.08700739 354.80376113 731.9873926 386.50255847 C734.64926632 394.25747945 737.24175417 402.03547573 739.83058739 409.81502533 C740.1267347 410.70451842 740.42288202 411.59401152 740.7280035 412.51045895 C741.41034798 414.56232979 742.09141784 416.61461805 742.77199364 418.66707611 C746.3736371 429.51613546 749.99568638 440.35837247 753.61629295 451.20111465 C755.92791399 458.12486892 758.23775854 465.04921602 760.54781151 471.97349358 C762.52589588 477.90245728 764.5045556 483.83122783 766.48439598 489.75960541 C768.43824825 495.61025826 770.39061237 501.46140582 772.34197044 507.31289101 C773.07497484 509.510075 773.80850179 511.70708475 774.542593 513.90390587 C786.68122311 550.23284557 786.68122311 550.23284557 785.08058739 556.62361908 C783.66174889 558.72284698 783.66174889 558.72284698 781.08058739 560.62361908 C777.81050727 561.23725913 774.56991722 561.1800876 771.2507534 561.15706635 C770.25358299 561.16568192 769.25641258 561.17429749 768.22902489 561.18317413 C764.93058425 561.20588912 761.63298944 561.19908459 758.33449364 561.19002533 C756.04290069 561.19525864 753.7513099 561.20153403 751.45972252 561.2088089 C746.65542533 561.21922351 741.85142413 561.21463648 737.04714012 561.2000351 C730.88861186 561.18285068 724.73101683 561.2063337 718.57259274 561.2415247 C713.83965426 561.26347972 709.10693969 561.26206164 704.37396622 561.25375938 C702.10335263 561.25293874 699.83272278 561.2598236 697.56215668 561.27453041 C694.38745884 561.29193944 691.21444577 561.27746253 688.0398159 561.2547226 C687.10095039 561.26641479 686.16208488 561.27810699 685.19476891 561.2901535 C680.78042035 561.22578132 678.71549487 561.09570404 675.08774376 558.39829254 C673.18152154 555.76314948 672.01854824 553.67049757 671.00685692 550.59774017 C670.67467155 549.61407471 670.34248619 548.63040924 670.0002346 547.61693573 C669.65807915 546.55437561 669.31592369 545.49181549 668.96339989 544.39705658 C668.58958183 543.27818054 668.21576378 542.1593045 667.8306179 541.00652313 C666.60894358 537.34150017 665.4075832 533.67013755 664.20558739 529.99861908 C663.35859694 527.44305471 662.50661189 524.88916988 661.65382957 522.33553314 C661.22387009 521.0474565 660.79393848 519.75937055 660.36403465 518.47127533 C660.151007 517.8330484 659.93797935 517.19482147 659.71849632 516.53725433 C659.07132685 514.59583768 658.42613806 512.65377325 657.78151512 510.7115097 C654.36392216 500.4203011 650.83293677 490.1721781 647.23436546 479.94301605 C645.73378851 475.67694899 644.24093641 471.40818428 642.74855614 467.13924408 C642.45475563 466.29890625 642.16095512 465.45856842 641.85825157 464.59276581 C638.42918573 454.77405227 635.03601966 444.94305764 631.66518211 435.1042099 C630.98883945 433.13188711 630.31088509 431.1601162 629.63124657 429.1889267 C628.69450465 426.47075543 627.76367942 423.75063104 626.83449364 421.02986908 C626.41385391 419.81445435 626.41385391 419.81445435 625.98471642 418.57448578 C624.93324414 415.47783294 624.08058739 412.9178861 624.08058739 409.62361908 C575.57058739 409.95361908 527.06058739 410.28361908 477.08058739 410.62361908 C466.91667862 440.51746839 456.77747698 470.41005899 446.82521629 500.37361908 C444.29707182 507.98397767 441.75965127 515.59124317 439.22258568 523.19863129 C438.26015563 526.08465774 437.29786074 528.97072877 436.33667564 531.8571701 C435.89567849 533.17896666 435.45314361 534.50025133 435.00894737 535.82097626 C433.89408845 539.14200798 432.8118806 542.46914613 431.77687645 545.81600189 C431.56149223 546.49824829 431.34610802 547.18049469 431.12419701 547.88341522 C430.53315537 549.75922533 429.95415199 551.63881649 429.37599754 553.51863861 C427.97678733 556.87241838 426.90128788 558.36842112 424.08058739 560.62361908 C421.2960701 561.12139702 421.2960701 561.12139702 418.02611351 561.1180954 C416.78450462 561.12648438 415.54289574 561.13487335 414.26366234 561.14351654 C412.88997147 561.13254916 411.51628373 561.12118318 410.14259911 561.10945892 C408.69339722 561.11160542 407.24419701 561.11548406 405.79500389 561.12096405 C401.85597209 561.13066587 397.91739306 561.11533433 393.97841597 561.09505796 C389.84150893 561.07745636 385.7046153 561.08101296 381.56767845 561.08177948 C374.60527075 561.07990491 367.64303705 561.06253718 360.68068504 561.03524017 C352.67386194 561.00396048 344.66723051 560.99323804 336.66035068 560.99471128 C328.09848318 560.99607309 319.53668799 560.98211116 310.97484255 560.96381807 C308.5301774 560.95959099 306.08552424 560.95814049 303.64085579 560.95734024 C262.93770289 560.93159747 262.93770289 560.93159747 245.95558739 556.37361908 C244.70950706 556.04720428 244.70950706 556.04720428 243.4382534 555.71419525 C198.56187074 543.5978728 161.5816859 512.51050474 138.34621239 472.67049408 C123.53197034 446.61262217 116.06738665 417.2640691 115.84230614 387.32283783 C115.83423439 386.28343552 115.82616264 385.2440332 115.8178463 384.17313385 C115.80411366 381.99412912 115.79334395 379.81510385 115.78542137 377.63607025 C115.77381838 375.41042008 115.75323825 373.18479946 115.72389793 370.95931244 C115.68136545 367.72613071 115.66508227 364.49376394 115.65480614 361.26033783 C115.63729805 360.26757339 115.61978996 359.27480896 115.60175133 358.25196075 C115.61562141 353.85070348 115.64175862 351.33952576 117.98219872 347.52132416 C121.96042298 343.92356532 125.73621368 344.45599921 130.85719872 344.43074799 C131.76629494 344.4225705 132.67539116 344.41439301 133.61203575 344.40596771 C136.62888996 344.38109829 139.64569709 344.36459426 142.66261864 344.35018158 C144.20609757 344.34219606 144.20609757 344.34219606 145.7807579 344.33404922 C151.226478 344.30731167 156.67217511 344.28793818 162.1179409 344.27352142 C167.74733607 344.25686671 173.37614659 344.21208349 179.00532055 344.16114998 C183.3298772 344.12752166 187.65429429 344.11594884 191.97896957 344.11029434 C194.05424216 344.1035703 196.1295052 344.08831846 198.20465088 344.06440353 C201.10885189 344.03284239 204.01146552 344.03270163 206.91579247 344.04012299 C208.20256889 344.01551498 208.20256889 344.01551498 209.51534081 343.99040985 C213.87945379 344.03607871 215.56380768 344.21892225 219.11514854 347.00002289 C221.32749935 349.9532133 221.69583533 351.27170275 221.68214989 354.91268158 C221.69528221 355.9270932 221.70841454 356.94150482 221.72194481 357.98665619 C221.71654686 359.06310394 221.71114891 360.1395517 221.70558739 361.24861908 C222.18832692 386.86340744 226.75117633 412.62415592 244.76808739 432.06111908 C257.15641517 443.58648285 273.40885348 449.76716309 290.27931786 449.73714447 C290.97269753 449.7372905 291.66607719 449.73743652 292.38046837 449.73758698 C294.65293665 449.73689504 296.92532108 449.72913658 299.19777489 449.72127533 C300.78103656 449.71940859 302.36429881 449.7179859 303.94756126 449.71698761 C308.10021644 449.71318257 312.25283625 449.70336959 316.40547752 449.69228363 C320.64873845 449.68202611 324.89200512 449.67748071 329.13527489 449.6724472 C337.45039523 449.66174541 345.7654869 449.64469332 354.08058739 449.62361908 C354.41155418 448.60042572 354.74252098 447.57723236 355.08351707 446.52303314 C361.61446465 426.34116812 368.18276619 406.17374495 374.9448452 386.06795502 C378.45036956 375.62576156 381.79125554 365.13582038 385.08058739 354.62361908 C384.22503258 354.63250153 383.36947777 354.64138397 382.48799706 354.65053558 C374.42485154 354.73068667 366.36183984 354.79158603 358.29838753 354.83086777 C354.15286069 354.85174195 350.00766304 354.88005593 345.86232567 354.92537689 C341.86173582 354.96884157 337.86146257 354.99275746 333.86065483 355.00312805 C332.33439461 355.01051839 330.80815171 355.02495019 329.28202629 355.04653931 C327.14386125 355.07558332 325.00700392 355.07957493 322.86867332 355.07772064 C321.04333061 355.09104431 321.04333061 355.09104431 319.18111229 355.10463715 C316.08058739 354.62361908 316.08058739 354.62361908 313.68370628 352.88703156 C310.92071125 348.98601246 311.52060203 345.21801807 312.08058739 340.62361908 C312.82524895 337.4110312 313.90437536 334.39752402 315.08839989 331.32283783 C315.405756 330.45980545 315.72311211 329.59677307 316.05008507 328.7075882 C317.08610576 325.90259054 318.14507616 323.10693917 319.20558739 320.31111908 C319.93310485 318.36153357 320.65940895 316.41149488 321.38454247 314.46102142 C322.87036135 310.47285807 324.36610874 306.48861848 325.86916161 302.50691986 C327.64443044 297.79762972 329.38951243 293.07807652 331.11861229 288.35166168 C332.36431171 284.9491705 333.62064475 281.55067483 334.87959862 278.15306854 C335.46727041 276.56269714 336.05151671 274.97105534 336.63216209 273.37810516 C337.44047456 271.16631202 338.26427444 268.96090494 339.09230614 266.75643158 C339.32196571 266.11773636 339.55162529 265.47904114 339.78824425 264.82099152 C341.43989468 260.49105583 343.5366602 256.65904728 347.08058739 253.62361908 C350.2771368 252.87415886 350.2771368 252.87415886 353.95694542 252.87517548 C354.63626497 252.86722666 355.31558452 252.85927785 356.01548952 252.85108817 C358.28552498 252.83188016 360.55305474 252.85544479 362.82301903 252.87899017 C364.4527231 252.87413282 366.08242121 252.86669269 367.71210289 252.85686493 C372.13374056 252.83806061 376.55449176 252.85688365 380.97606015 252.88352919 C385.60265496 252.90616678 390.2292064 252.89794262 394.85584068 252.89403534 C402.62434432 252.89226981 410.39249876 252.91442355 418.16090965 252.9512558 C427.1445871 252.99360585 436.12775328 253.00060763 445.11151034 252.98813188 C453.75226158 252.9767465 462.39283263 252.98803253 471.03355789 253.01047897 C474.71172922 253.01977209 478.38979039 253.02151824 482.06797028 253.01730728 C486.3978548 253.01354255 490.72721824 253.02973968 495.05698395 253.06142807 C496.64688015 253.06991955 498.23682921 253.0716109 499.82673836 253.06604767 C501.99547004 253.05960982 504.16264178 253.07774568 506.331213 253.10222626 C508.15215272 253.10838487 508.15215272 253.10838487 510.00987911 253.11466789 C513.08058739 253.62361908 513.08058739 253.62361908 515.50242329 255.03120613 C517.08058739 257.62361908 517.08058739 257.62361908 517.08058739 267.62361908 C513.12058739 279.50361908 509.16058739 291.38361908 505.08058739 303.62361908 C533.79058739 303.95361908 562.50058739 304.28361908 592.08058739 304.62361908 C589.95621239 298.55986908 587.83183739 292.49611908 585.64308739 286.24861908 C579.80502738 269.54888606 574.06786147 252.8169899 568.39308739 236.06111908 C561.77689432 216.52595234 555.02118281 197.04587819 548.08058739 177.62361908 C547.87649254 178.22417114 547.67239769 178.82472321 547.46211815 179.44347382 C545.33091214 185.70895298 543.18753487 191.9701726 541.03713036 198.22908783 C540.23681608 200.56363469 539.43958247 202.89924006 538.64552879 205.23592377 C537.50181833 208.59977808 536.34698254 211.95963553 535.18996239 215.31893158 C534.83875328 216.35977905 534.48754417 217.40062653 534.12569237 218.47301483 C531.95210254 224.74073742 529.83421421 229.86999226 525.08058739 234.62361908 C523.27110386 234.8836813 523.27110386 234.8836813 521.0393734 234.89777374 C520.19402031 234.90774887 519.34866722 234.917724 518.47769737 234.9280014 C517.54831856 234.92866608 516.61893974 234.92933075 515.66139793 234.93001556 C514.68402672 234.93833908 513.7066555 234.9466626 512.69966698 234.95523834 C509.45550664 234.97941376 506.21154711 234.98812013 502.96730614 234.99471283 C500.71769714 235.00367415 498.46808878 235.01279589 496.21848106 235.02207184 C491.49647636 235.03858542 486.77454275 235.04626613 482.05251122 235.04915619 C475.99936018 235.05453921 469.94687674 235.09220642 463.89391422 235.13790035 C459.24507772 235.16763377 454.59640258 235.17487896 449.94747925 235.17588234 C447.71592021 235.18009281 445.48436105 235.19256003 443.25289536 235.21339989 C440.13075076 235.24023339 437.01016117 235.2355119 433.88796043 235.22298431 C432.50300125 235.24523575 432.50300125 235.24523575 431.0900631 235.26793671 C426.62552199 235.21688314 424.67322326 235.06596648 420.99764061 232.32248688 C418.43814463 228.71917467 418.4089282 225.83757221 419.08058739 221.62361908 C419.77545166 218.70829295 420.73218923 215.93532833 421.76418114 213.12361908 C422.05100258 212.31070908 422.33782402 211.49779907 422.63333702 210.66025543 C423.58321202 207.9770508 424.55059859 205.30051759 425.51808739 202.62361908 C426.19179805 200.73072974 426.86430039 198.83740996 427.53566551 196.94368744 C428.96185814 192.92689815 430.39519349 188.91276057 431.83400536 184.90047455 C434.11180708 178.54472306 436.36624503 172.18084093 438.61574364 165.81502533 C441.14032217 158.67199852 443.66741963 151.52989946 446.2023983 144.39055634 C450.19460521 133.14631081 454.1490341 121.88920857 458.08058739 110.62361908 C457.06229345 109.38160602 457.06229345 109.38160602 454.93047142 109.51682281 C453.98243645 109.52507584 453.03440147 109.53332886 452.05763817 109.54183197 C450.98627617 109.54836288 449.91491417 109.5548938 448.81108665 109.56162262 C447.64447502 109.57305801 446.47786339 109.58449341 445.27589989 109.59627533 C442.83189089 109.60892257 440.3878804 109.62128346 437.94386864 109.6333847 C434.07028681 109.65822482 430.19678126 109.68619495 426.32326317 109.71956635 C422.59913697 109.74969528 418.8751088 109.76752347 415.15089989 109.78377533 C413.98833672 109.79723495 412.82577354 109.81069458 411.62798119 109.82456207 C410.55031487 109.82794083 409.47264854 109.83131958 408.36232567 109.83480072 C407.41269951 109.84225815 406.46307335 109.84971558 405.48467064 109.85739899 C403.08058739 109.62361908 403.08058739 109.62361908 400.08058739 107.62361908 C400.49631004 109.52434174 400.49631004 109.52434174 400.92043114 111.46346283 C401.2865503 113.16263123 401.6524225 114.86185286 402.01808739 116.56111908 C402.20048973 117.39191986 402.38289207 118.22272064 402.57082176 119.0786972 C402.74806786 119.90691986 402.92531395 120.73514252 403.10793114 121.58846283 C403.3514431 122.71175995 403.3514431 122.71175995 403.5998745 123.85774994 C404.81084635 130.82529701 405.25126732 137.74756674 405.31886864 144.81111908 C405.33369537 146.08892242 405.33369537 146.08892242 405.34882164 147.39253998 C405.59380604 173.99775482 403.2730664 197.72397165 395.17824364 223.22908783 C394.75297386 224.57716522 394.75297386 224.57716522 394.31911278 225.9524765 C392.64709008 229.55854792 391.01147235 231.9070459 388.08058739 234.62361908 C385.10870063 235.47041211 382.26079443 235.4389665 379.18605614 235.39315033 C378.32103981 235.40448502 377.45602348 235.4158197 376.56479454 235.42749786 C373.79861663 235.45815255 371.03437609 235.44843301 368.26808739 235.43611908 C365.55145487 235.45041077 362.83497131 235.47307694 360.11839867 235.4958725 C358.33010641 235.51072492 356.54179377 235.52329801 354.75346947 235.53359222 C342.45855151 235.62088399 330.42153726 236.35658604 318.33058739 238.74861908 C317.22151024 238.96743744 316.11243309 239.1862558 314.96974754 239.41170502 C293.57234802 243.84681356 274.3886677 251.82007336 258.08058739 266.62361908 C257.41156395 267.19983002 256.74254051 267.77604095 256.05324364 268.36971283 C239.86348788 283.23515319 231.05280134 304.18793913 225.19435692 324.93978119 C223.74498293 329.76184507 222.44994393 332.09697342 218.08058739 334.62361908 C214.28004432 335.19996301 210.51806215 335.12856057 206.68092918 335.07772064 C205.52927773 335.07830475 204.37762627 335.07888885 203.19107628 335.07949066 C199.38701227 335.07670545 195.58373316 335.04559093 191.77980614 335.01424408 C189.1413675 335.00678329 186.50292332 335.0010896 183.86447716 334.9970932 C177.63129835 334.98467271 171.39840098 334.951864 165.16534597 334.91169524 C158.06746051 334.86694839 150.96956144 334.84498322 143.87156999 334.8249135 C129.27443078 334.78313032 114.67751302 334.7127965 100.08058739 334.62361908 C100.08611814 336.33428118 100.08611814 336.33428118 100.09176064 338.07950211 C100.18048091 365.80363272 100.24625332 393.52774497 100.28783607 421.25198746 C100.29194214 423.91883351 100.29608085 426.58567948 100.30031395 429.25252533 C100.30136319 429.91539257 100.30241243 430.5782598 100.30349347 431.26121393 C100.32090681 441.99945753 100.35244956 452.73761562 100.38919857 463.47580847 C100.42658225 474.49118437 100.44851829 485.50651299 100.45694137 496.52194905 C100.46216501 502.71045274 100.47447783 508.89876237 100.50350761 515.08720398 C100.53059345 520.90823114 100.53904616 526.72898371 100.53301811 532.5500679 C100.53412141 534.689879 100.54211568 536.82969899 100.55740929 538.96945572 C100.57723005 541.88485199 100.57255534 544.79920345 100.56160545 547.7146225 C100.57325682 548.56676165 100.58490819 549.41890081 100.59691262 550.29686236 C100.5602399 553.89441322 100.4052189 556.15859777 98.31813145 559.14826488 C95.87277824 560.76064078 94.69542929 561.12721536 91.79886436 561.13828278 C90.95076195 561.15100723 90.10265953 561.16373169 89.22885704 561.17684174 C88.30666878 561.17031586 87.38448051 561.16378998 86.43434715 561.15706635 C85.45668388 561.16568192 84.47902061 561.17429749 83.47173119 561.18317413 C80.23821643 561.20588681 77.00556465 561.19908505 73.77199364 561.19002533 C71.52524113 561.19525875 69.27849083 561.20153419 67.031744 561.2088089 C62.32160165 561.21922308 57.61176121 561.21463712 52.90163231 561.2000351 C46.86416542 561.18285085 40.82765051 561.20633362 34.79028988 561.2415247 C30.14999643 561.26348108 25.50993135 561.26206132 20.8696022 561.25375938 C18.6436458 561.25293881 16.4176728 561.25982233 14.19176483 561.27453041 C11.07932153 561.29194201 7.96859618 561.27746063 4.85622215 561.2547226 C3.93605812 561.26641479 3.01589409 561.27810699 2.0678463 561.2901535 C1.21692406 561.27749954 0.36600182 561.26484558 -0.51070595 561.25180817 C-1.24571044 561.25122186 -1.98071493 561.25063555 -2.73799229 561.25003147 C-6.24859124 560.24193475 -7.66643656 558.46941268 -9.91941261 555.62361908 C-10.64930311 552.56002074 -10.59094222 549.57052591 -10.54861832 546.43279266 C-10.55588552 545.4999159 -10.56315272 544.56703913 -10.57064015 543.60589337 C-10.58897021 540.46214548 -10.57149707 537.31960533 -10.55433083 534.17586517 C-10.56008882 531.90646679 -10.56802776 529.63707306 -10.57796705 527.36768913 C-10.59890751 521.11764726 -10.58849229 514.86798539 -10.57303596 508.61794186 C-10.5629136 502.57424812 -10.57619526 496.5306351 -10.58877278 490.48695725 C-10.61512372 477.36000015 -10.61281076 464.23316458 -10.59837822 451.10619587 C-10.58580995 439.61872477 -10.58251248 428.13129827 -10.58849144 416.64382172 C-10.58887337 415.88240031 -10.58925529 415.1209789 -10.58964879 414.33648412 C-10.59120543 411.24577585 -10.59279743 408.15506761 -10.59444761 405.06435939 C-10.60974924 376.05974021 -10.59586482 347.05519854 -10.56896312 318.05059132 C-10.54523434 292.27085593 -10.54735745 266.49124402 -10.57126808 240.7115097 C-10.5980301 211.76059893 -10.60866414 182.80975665 -10.59320676 153.85883522 C-10.59160313 150.77369564 -10.59003893 147.68855605 -10.58849144 144.60341644 C-10.58809605 143.8437533 -10.58770067 143.08409015 -10.5872933 142.30140691 C-10.58160131 130.81998605 -10.58826589 119.33861464 -10.60088921 107.85720062 C-10.61516803 94.8048059 -10.61164885 81.75255194 -10.58448549 68.70017481 C-10.57107554 62.03633315 -10.56625156 55.37268719 -10.58273125 48.70883179 C-10.59757486 42.61453381 -10.58953466 36.52072084 -10.56284349 30.42646718 C-10.5572348 28.21591462 -10.56015195 26.00532151 -10.57222243 23.7947948 C-10.58732352 20.80075403 -10.5719415 17.80839681 -10.54861832 14.8144455 C-10.56032415 13.94661981 -10.57202998 13.07879412 -10.58409053 12.18467069 C-10.51728917 7.92427867 -10.28380672 6.11921434 -7.68755054 2.58816862 C-4.75595977 0.50761647 -3.52998431 -0.00115104 0 0 Z M-1.91941261 8.62361908 C-1.91941261 188.14361908 -1.91941261 367.66361908 -1.91941261 552.62361908 C29.10058739 552.62361908 60.12058739 552.62361908 92.08058739 552.62361908 C92.08058739 478.04361908 92.08058739 403.46361908 92.08058739 326.62361908 C132.67058739 326.62361908 173.26058739 326.62361908 215.08058739 326.62361908 C217.5194927 320.12882952 217.5194927 320.12882952 219.80714989 313.59236908 C230.4429784 282.69473873 248.64914197 257.12318939 278.638937 242.460289 C305.78329579 229.85674781 333.90576546 227.65694538 363.39308739 227.06111908 C365.40546424 227.01782647 367.41783414 226.97420917 369.43019676 226.9302597 C374.3135882 226.82430497 379.19705259 226.7227367 384.08058739 226.62361908 C388.63682752 215.91797691 391.42177938 204.92696183 394.08058739 193.62361908 C394.26572899 192.86001068 394.45087059 192.09640228 394.64162254 191.30965424 C399.93452534 168.57075278 399.47643238 140.28090383 394.08058739 117.62361908 C393.90898094 116.89916595 393.7373745 116.17471283 393.56056786 115.42830658 C384.25737672 77.78322217 359.71689707 46.53466545 326.91554832 26.2871933 C301.28996202 11.07089688 273.73912497 7.99593705 244.43068504 8.16951752 C241.68462971 8.17298783 238.93858732 8.17038045 236.19253159 8.16805649 C229.63987463 8.16595185 223.08744152 8.18420341 216.53484168 8.2100618 C208.93638138 8.23913543 201.3380509 8.24205559 193.73952293 8.24520111 C173.72817622 8.26610718 153.71687832 8.32195226 133.70558739 8.37361908 C88.94933739 8.45611908 44.19308739 8.53861908 -1.91941261 8.62361908 Z M503.08058739 8.62361908 C499.67719542 16.7917598 496.50706382 24.8507543 493.66652489 33.20565033 C493.25925163 34.39283661 492.85197838 35.58002289 492.43236351 36.80318451 C491.55836331 39.35234317 490.68575325 41.90192508 489.81557274 44.45238495 C488.429986 48.51312593 487.03848792 52.57182621 485.64601707 56.63021088 C483.96447521 61.53209123 482.28393679 66.43431251 480.60504723 71.33710194 C476.19706016 84.20924272 471.76989687 97.07474528 467.33058739 109.93611908 C466.94196526 111.06225616 466.55334312 112.18839325 466.15294456 113.3486557 C458.91991449 134.29658673 451.53295853 155.18839756 444.11505699 176.07141876 C440.71389526 185.64971272 437.32700843 195.23298078 433.95866966 204.82286835 C433.33676346 206.59205538 432.71371535 208.36084147 432.089468 210.1292038 C431.23848579 212.54037314 430.39141338 214.95287924 429.54543114 217.36580658 C429.29323814 218.07784744 429.04104515 218.78988831 428.78120995 219.52350616 C427.51017056 222.99072124 427.51017056 222.99072124 427.08058739 226.62361908 C458.10058739 226.62361908 489.12058739 226.62361908 521.08058739 226.62361908 C524.44073239 218.55927107 527.58664302 210.603524 530.40089989 202.35799408 C530.78623894 201.2397525 531.17157799 200.12151093 531.56859398 198.96938324 C532.78455824 195.43869889 533.99532169 191.90626039 535.20558739 188.37361908 C536.42397018 184.82703945 537.64345851 181.28084411 538.86400414 177.73500824 C539.6189955 175.54064912 540.37259403 173.34581012 541.12456322 171.15041351 C542.62482142 166.78170589 544.13991383 162.43779689 545.83400536 158.14022064 C547.3033298 154.61709927 547.3033298 154.61709927 547.08058739 150.62361908 C547.74058739 150.62361908 548.40058739 150.62361908 549.08058739 150.62361908 C549.23406639 151.23278168 549.38754539 151.84194427 549.54567528 152.46956635 C551.57494865 160.22955904 554.11108856 167.77964408 556.74748802 175.3479538 C558.0986886 179.2286087 559.43710513 183.11367017 560.77589989 186.99861908 C561.05232826 187.8002095 561.32875664 188.60179993 561.61356163 189.42768097 C564.18323522 196.8931379 566.68369448 204.38079642 569.16826439 211.87493134 C578.52017562 240.08186431 588.06904817 268.22431728 597.95558739 296.24861908 C598.21283592 296.97857086 598.47008446 297.70852264 598.7351284 298.46059418 C599.45004142 300.48693371 600.16709386 302.5124983 600.88527489 304.53768158 C601.48831444 306.23851898 601.48831444 306.23851898 602.10353661 307.97371674 C602.99900363 310.55226569 602.99900363 310.55226569 604.08058739 312.62361908 C567.45058739 312.29361908 530.82058739 311.96361908 493.08058739 311.62361908 C498.03058739 297.43361908 502.98058739 283.24361908 508.08058739 268.62361908 C508.41058739 266.31361908 508.74058739 264.00361908 509.08058739 261.62361908 C456.94058739 261.62361908 404.80058739 261.62361908 351.08058739 261.62361908 C347.71136523 269.03590782 344.59614311 276.29971039 341.83058739 283.92440033 C341.44999168 284.96323868 341.06939598 286.00207703 340.67726707 287.07239532 C339.47436916 290.35885564 338.27743492 293.64745124 337.08058739 296.93611908 C336.27888463 299.12831559 335.47680412 301.32037399 334.67433739 303.51229095 C332.79374354 308.65292043 330.92243487 313.79685675 329.05568504 318.94252777 C328.1775527 321.35700694 327.29259392 323.76883031 326.40480614 326.17977142 C325.94239294 327.44614684 325.48013657 328.71257955 325.01808739 329.97908783 C324.63523582 331.02089203 324.25238426 332.06269623 323.85793114 333.13607025 C322.93145256 335.66649694 322.93145256 335.66649694 323.08058739 338.62361908 C324.72602519 340.31124759 326.39347316 341.97765398 328.08058739 343.62361908 C328.41058739 344.61361908 328.74058739 345.60361908 329.08058739 346.62361908 C351.52058739 346.62361908 373.96058739 346.62361908 397.08058739 346.62361908 C395.38933739 351.51174408 393.69808739 356.39986908 391.95558739 361.43611908 C385.61948739 379.85261464 379.56706103 398.35734754 373.58174706 416.89038849 C371.97000255 421.88037853 370.35027205 426.86762761 368.71959496 431.85146332 C367.76624588 434.76581992 366.81621789 437.68125248 365.86678123 440.59688568 C365.43018648 441.93516367 364.99218486 443.2729836 364.55269432 444.61031342 C363.95638427 446.42592503 363.36597068 448.24347014 362.77589989 450.06111908 C362.28114159 451.57512299 362.28114159 451.57512299 361.77638817 453.11971283 C360.946717 455.67223368 360.946717 455.67223368 361.08058739 458.62361908 C350.64796551 458.58535576 340.21569676 458.52569785 329.78335285 458.43971634 C324.93767566 458.40043021 320.09217506 458.36815016 315.24635887 458.35262299 C310.55822799 458.33733092 305.87058326 458.30266734 301.18267059 458.25531006 C299.40602502 458.24062435 297.62930998 458.23258554 295.85260391 458.23173523 C281.65056324 458.2181193 268.57246652 456.64276411 255.76808739 449.93611908 C255.1049453 449.59580658 254.44180321 449.25549408 253.7585659 448.90486908 C247.70435115 445.66298701 242.81997071 441.59246975 238.08058739 436.62361908 C237.15052879 435.70516205 237.15052879 435.70516205 236.20168114 434.76815033 C218.31239787 415.99841017 214.43689868 388.79146153 213.51808739 363.99861908 C213.453312 362.34926361 213.453312 362.34926361 213.38722801 360.66658783 C213.28232332 357.98569026 213.18016012 355.30471907 213.08058739 352.62361908 C201.62408723 352.60049667 190.16759258 352.58270451 178.71107388 352.57180691 C173.39193526 352.56657786 168.07281255 352.55947981 162.75368309 352.54817963 C157.62494754 352.53735153 152.49622733 352.53134241 147.36748123 352.52874184 C145.40617125 352.52688745 143.44486214 352.52326657 141.48355865 352.51788902 C138.74643291 352.51067962 136.00937141 352.50962809 133.27223778 352.51009369 C132.04333321 352.50470078 132.04333321 352.50470078 130.78960228 352.49919891 C127.13555301 352.15806408 127.13555301 352.15806408 124.08058739 353.62361908 C123.95393078 356.46897895 123.89231091 359.28863426 123.87746239 362.13533783 C123.86687294 363.44262848 123.86687294 363.44262848 123.85606956 364.77632904 C123.51966902 391.35753021 123.51966902 391.35753021 127.08058739 417.62361908 C127.37062645 418.99792084 127.37062645 418.99792084 127.66652489 420.39998627 C137.29212781 464.56189596 163.43732348 502.59033522 201.08058739 527.62361908 C228.29397073 545.02086947 258.35102186 552.82516016 290.43459129 552.73714447 C291.85476746 552.73686183 293.27494377 552.73702182 294.69511986 552.73758698 C298.52086499 552.73787196 302.34657829 552.73202373 306.17231607 552.72501302 C310.18148223 552.71872956 314.19064925 552.71817175 318.19981956 552.71698761 C325.77851052 552.71388895 333.35718692 552.70569543 340.93587148 552.69563812 C349.56955258 552.68443133 358.2032344 552.67895506 366.83692098 552.67394269 C384.58481801 552.66351149 402.33270152 552.6459406 420.08058739 552.62361908 C430.99869383 520.74015755 430.99869383 520.74015755 441.71712303 488.78917694 C442.76164449 485.64222954 443.80837163 482.49602173 444.85548973 479.34993744 C447.53643749 471.29341472 450.21330858 463.23553961 452.88918114 455.17733002 C454.24333685 451.09950701 455.59834179 447.0219676 456.95442772 442.94478607 C457.45040939 441.45341549 457.9461419 439.96196201 458.44161034 438.47042084 C461.5900414 428.99651284 464.78950926 419.54304727 468.20412254 410.1609726 C469.27685168 407.17528948 470.08058739 404.82352992 470.08058739 401.62361908 C522.88058739 401.62361908 575.68058739 401.62361908 630.08058739 401.62361908 C631.07058739 405.25361908 632.06058739 408.88361908 633.08058739 412.62361908 C633.64346277 414.44115328 634.22269579 416.25393608 634.8354702 418.0552597 C635.30395126 419.4400074 635.30395126 419.4400074 635.78189659 420.8527298 C636.27779541 422.30166374 636.27779541 422.30166374 636.78371239 423.77986908 C637.13811897 424.82353134 637.49252556 425.8671936 637.85767174 426.94248199 C639.01180875 430.33739798 640.17100427 433.73055981 641.33058739 437.12361908 C642.14294544 439.50826851 642.95519998 441.89295321 643.76735497 444.27767181 C648.70839983 458.76799466 653.71306746 473.23521838 658.76808739 487.68611908 C666.31476594 509.29413032 673.69524089 530.95993601 681.08058739 552.62361908 C712.76058739 552.62361908 744.44058739 552.62361908 777.08058739 552.62361908 C776.26141533 547.70858674 775.12395672 543.28227654 773.57277489 538.58846283 C773.16906166 537.35032837 773.16906166 537.35032837 772.75719261 536.08718109 C771.82805415 533.24358826 770.89197583 530.4023322 769.95558739 527.56111908 C769.27287165 525.47952705 768.59025879 523.39790128 767.90773582 521.31624603 C756.60785404 486.91722782 745.09489035 452.58781476 733.62781811 418.24428272 C729.91014258 407.10991328 726.19516385 395.9746481 722.48293114 384.83846283 C722.12723675 383.77160531 722.12723675 383.77160531 721.76435661 382.68319511 C718.95687441 374.26230031 716.15494598 365.83957966 713.35782814 357.41523647 C708.38911579 342.45070103 703.34907713 327.51187877 698.25923729 312.58809662 C688.7470277 284.69670898 679.42297938 256.74395646 670.12447166 228.78079987 C667.01636123 219.43404348 663.90341358 210.08891014 660.78761864 200.74471283 C656.47799475 187.82016803 652.17247432 174.89425982 647.8688612 161.9677124 C644.08271446 150.59553906 640.29534579 139.22377299 636.50738621 127.85220337 C634.04594109 120.46272323 631.58508497 113.07304784 629.12550926 105.68294525 C616.09631415 66.45915285 616.09631415 66.45915285 602.83058739 27.31502533 C602.58910973 26.61012403 602.34763206 25.90522274 602.0988369 25.1789608 C600.18935032 19.61215417 598.26674423 14.08901119 596.08058739 8.62361908 C565.39058739 8.62361908 534.70058739 8.62361908 503.08058739 8.62361908 Z M384.08058739 70.62361908 C385.08058739 72.62361908 385.08058739 72.62361908 385.08058739 72.62361908 Z M385.08058739 72.62361908 C386.08058739 74.62361908 386.08058739 74.62361908 386.08058739 74.62361908 Z M388.08058739 77.62361908 C389.08058739 80.62361908 389.08058739 80.62361908 389.08058739 80.62361908 Z M389.08058739 80.62361908 C390.08058739 82.62361908 390.08058739 82.62361908 390.08058739 82.62361908 Z " fill="#010101" transform="translate(167.91941261291504,210.37638092041016)"/>
<path d="M0 0 C50.49 0 100.98 0 153 0 C149.62510053 11.24966489 149.62510053 11.24966489 148.18164062 15.15722656 C147.85663574 16.04163925 147.53163086 16.92605194 147.19677734 17.83726501 C146.85340332 18.76237381 146.5100293 19.6874826 146.15625 20.640625 C145.79031738 21.63409439 145.42438477 22.62756378 145.04736328 23.65113831 C143.86774183 26.85181228 142.68396489 30.05093047 141.5 33.25 C140.6865676 35.45391636 139.87341797 37.6579371 139.06054688 39.86206055 C137.84591265 43.15533917 136.63102776 46.44852302 135.41491699 49.74125671 C133.07630958 56.07418173 130.74858009 62.41088534 128.4375 68.75390625 C128.04963318 69.81739792 128.04963318 69.81739792 127.65393066 70.90237427 C126.49149725 74.08998021 125.33101812 77.27825786 124.17382812 80.46777344 C123.77615234 81.55735352 123.37847656 82.64693359 122.96875 83.76953125 C122.63294922 84.69354736 122.29714844 85.61756348 121.95117188 86.56958008 C121 89 121 89 119 93 C103.82 93 88.64 93 73 93 C71.35 89.04 69.7 85.08 68 81 C53.99337652 47.60443255 34.64502891 20.89279631 2.7890625 2.6796875 C1.86867188 2.12539062 0.94828125 1.57109375 0 1 C0 0.67 0 0.34 0 0 Z " fill="#FDFDFD" transform="translate(502,219)"/>
<path d="M0 0 C39.22828664 -0.16121214 39.22828664 -0.16121214 55.73828125 -0.1953125 C67.11254131 -0.2189948 78.48668236 -0.2467495 89.86083984 -0.30175781 C98.14667562 -0.34181088 106.43241431 -0.36747647 114.71834421 -0.37635398 C119.09974098 -0.38153768 123.48086016 -0.39359343 127.86216736 -0.42292023 C131.99902921 -0.45038241 136.13550323 -0.45838394 140.27244759 -0.45243073 C141.77832725 -0.45351738 143.28422199 -0.46128591 144.7900219 -0.4768219 C164.14809459 -0.66648977 182.76493588 4.11497844 197 18 C208.72234726 31.38894296 214.77260046 46.57617138 214.27734375 64.46484375 C212.81598598 83.09200975 204.57868506 98.96818741 190.4375 111.1875 C168.11708565 127.893577 142.7891735 128.75058219 115.98522162 128.50696969 C111.89341537 128.47525282 107.80158125 128.47274039 103.70967102 128.46684265 C95.9965987 128.45143505 88.28388988 128.41058826 80.57097608 128.3600952 C70.12346104 128.29321616 59.67584333 128.2666612 49.22816753 128.23758411 C32.81850723 128.19087323 16.40961318 128.09117577 0 128 C0 85.76 0 43.52 0 0 Z M8 8 C8 44.96 8 81.92 8 120 C31.60350066 120.08751152 31.60350066 120.08751152 55.20703125 120.14648438 C64.84298535 120.16423295 74.47886032 120.18501157 84.11474609 120.22631836 C91.13487644 120.25639745 98.15494213 120.27561651 105.17513514 120.28226548 C108.8857948 120.28614671 112.59626961 120.29514559 116.30686951 120.31719017 C142.15978193 120.46465258 168.80129374 119.79399809 188.9921875 101.15625 C199.26081473 90.12846356 206.50447336 75.83440429 206.2109375 60.453125 C204.98612799 46.20904409 199.6503341 31.41655247 188.5625 21.91015625 C173.78395328 10.63731593 158.25106081 7.50630665 139.91650391 7.65942383 C138.46618162 7.66027269 137.01585805 7.65978991 135.5655365 7.65809631 C131.67587707 7.65724504 127.78650229 7.67472784 123.89690828 7.69581819 C119.81437452 7.71473189 115.73183229 7.71634689 111.64926147 7.71989441 C103.93960955 7.72917214 96.23008716 7.75372724 88.52049196 7.78394288 C78.08749925 7.8239336 67.65447045 7.83997634 57.22142029 7.85744953 C40.81418341 7.88555208 24.4072197 7.94534975 8 8 Z " fill="#030303" transform="translate(260,312)"/>
<path d="" fill="#FFFFFF" transform="translate(0,0)"/>
</svg>
